PathFileType	3	(X/Y/Z)	D:\Jess\Healthy\Labelled\HA16\20250507\SRRun02.trc
DataRate	CameraRate	NumFrames	NumMarkers	Units	OrigDataRate	OrigDataStartFrame	OrigNumFrames
250.0	250.0	4	37	mm	250.0	37188	2501
Frame#	Time	C7			T10			CLAV			LSHO			RSHO			LASIS			RASIS			LPSIS			RPSIS			LILCR			RILCR			LGTR			LTHI			LLTHI			LLEP			LMEP			LPSH			LLSH			LDSH			LLMAL			LMMAL			LTOE			L5TH			LHEE			RGTR			RTHI			RLTHI			RLEP			RMEP			RPSH			RLSH			RDSH			RLMAL			RMMAL			RTOE			R5TH			RHEE			
		X1	Y1	Z1	X2	Y2	Z2	X3	Y3	Z3	X4	Y4	Z4	X5	Y5	Z5	X6	Y6	Z6	X7	Y7	Z7	X8	Y8	Z8	X9	Y9	Z9	X10	Y10	Z10	X11	Y11	Z11	X12	Y12	Z12	X13	Y13	Z13	X14	Y14	Z14	X15	Y15	Z15	X16	Y16	Z16	X17	Y17	Z17	X18	Y18	Z18	X19	Y19	Z19	X20	Y20	Z20	X21	Y21	Z21	X22	Y22	Z22	X23	Y23	Z23	X24	Y24	Z24	X25	Y25	Z25	X26	Y26	Z26	X27	Y27	Z27	X28	Y28	Z28	X29	Y29	Z29	X30	Y30	Z30	X31	Y31	Z31	X32	Y32	Z32	X33	Y33	Z33	X34	Y34	Z34	X35	Y35	Z35	X36	Y36	Z36	X37	Y37	Z37	

2189	148.748	1101.199954664429	1325.690823904751	-341.2063551332305	1012.877465558446	1099.941294841975	-370.1828711924429	1233.90528638514	1214.98461411599	-322.0792925367908	1151.595036812476	1264.415238149193	-189.692145766381	1191.057402787414	1288.799087753844	-469.9919084615945	1175.298622977768	839.6709568735215	-464.2456278117163	1157.263835593082	873.9169298199481	-232.3558782748254	988.7128814426657	907.4477303949951	-396.6598694487785	983.113366347225	910.7254331805918	-348.8907628747613	1130.983788898501	929.0659402327835	-501.8794223315181	1083.384266552034	950.3995749176996	-210.3142296343974	1099.704037713182	764.0711210371481	-531.2437081993828	1222.350711231226	633.0174440900887	-464.0788796001844	1143.396258735633	538.6283144072551	-521.0010198064284	1154.336628398901	425.4608570125946	-510.2001479222573	nan	nan	nan	1128.112701973148	333.4232858087023	-469.5321138451605	1000.112831984027	379.3244922354957	-519.0410473182902	948.0194150371287	278.1462043647305	-478.3067328078095	833.0626919182608	297.287655961843	-506.4792125012747	nan	nan	nan	821.0819018312608	159.2796494849403	-526.4689392758478	782.4753395192835	195.4100470397698	-555.5496439069353	794.7556204806948	341.5137774768127	-444.916180568364	1074.248171339802	794.2033624434515	-171.2917524951669	1210.85482374331	669.0833605710108	-253.6286272308858	1126.942572294852	567.5783347632952	-210.6591205805496	1140.850126287614	433.3990002199295	-245.6289718172054	nan	nan	nan	1180.466569906457	353.6482315427822	-299.4646105659503	1088.926904684482	271.3795974474859	-255.6132652235438	1096.211474188238	166.1797775240945	-322.0416042967384	1007.862929857707	107.5425034518627	-304.500227470803	nan	nan	nan	1126.279619625198	62.4079149523715	-281.8502723564801	1083.932635256979	48.43971818416033	-253.0577716000261	944.9838205531162	85.80291991472349	-363.1304719291395	
2190	148.752	1100.334136641033	1326.912604442565	-340.6380392065446	1012.719067440944	1101.025208535607	-368.944867222269	1233.586702224135	1216.908470774879	-323.4337605652403	1153.133848700682	1266.282647810505	-189.9867515800248	1188.483579353326	1291.041382445812	-470.7067594526536	1173.977539036735	841.9717553365426	-464.9930603730026	1157.599201988399	874.1322909804796	-232.8492452259543	988.0976407421489	909.0226125265245	-395.2925582433497	982.8079125574287	912.3112611535604	-347.5385054557517	1129.96124158881	931.1331236968671	-501.725565774543	1084.776844448343	951.1283366390728	-210.17290186653	1097.632938808167	765.9405071044162	-531.063456103114	1223.820889477698	636.6359213242687	-464.0769916209725	1147.177926219313	541.0550431919173	-520.5013863489454	1160.661853187624	428.0803440341427	-509.2129142823008	nan	nan	nan	1136.113060064101	335.6233917096744	-468.4224135565682	1007.484677553504	379.0056642067741	-518.3023901808789	957.2309902990035	276.5824709893935	-477.6716594034437	841.758259358468	292.8592481557031	-506.4318466280293	nan	nan	nan	834.6565731865137	154.5098790687875	-525.7818167963072	795.0034525763432	189.0746365454007	-555.3466791574416	801.3351642578759	336.2108462037614	-445.3572765633418	1073.678522590915	794.6923874841821	-171.2151579138128	1208.002052609683	667.7451051307451	-253.9782396052661	1122.385171867041	567.6152318456761	-210.7606451448542	1133.741944002591	432.8461849186783	-245.6120205364667	nan	nan	nan	1172.675216285775	352.6200423111129	-299.385047622087	1080.362959601407	271.2882946574296	-255.6453429417231	1086.670994915369	166.0401407423402	-321.7849516930326	997.7943472836522	107.9664525547794	-304.3719385104716	nan	nan	nan	1115.959613078651	62.1196634460114	-281.6644243481235	1073.504755620045	48.29410208184512	-252.9214037373325	934.7998749899227	86.67825190428762	-362.9699339460219	
2191	148.756	1099.440398735934	1328.29172840818	-340.0660834804312	1012.632420627966	1102.21118306561	-367.611768766521	1233.263933673729	1219.062204736662	-324.8215899811301	1154.730705737054	1268.402668964418	-190.3348160671196	1185.81950007627	1293.511214231946	-471.4142888711396	1172.697387247086	844.4953512318071	-465.751351987172	1157.97222549107	874.4199635856676	-233.2790245799756	987.543208863436	910.7362250618536	-393.9505209251781	982.5759971005928	914.0125901313086	-346.2131288052482	1128.955537611763	933.3554878453724	-501.5429114876707	1086.277586512485	951.8541675032202	-209.9871111877115	1095.645777388349	768.0227200461532	-530.9158344555738	1225.17486812868	640.4937781954069	-464.1352479083079	1150.770572795253	543.740854142033	-519.9311635542183	1166.766514124641	431.0361335245811	-508.1752900230534	nan	nan	nan	1144.009539900831	338.1082593420375	-467.3284781791269	1014.699110893616	378.7254679156582	-517.5697716574861	966.5241806199282	274.9986124032872	-477.0362888324971	850.5505799344119	288.1679148796114	-506.3376970598708	nan	nan	nan	848.5031781822709	149.6475567856036	-525.0487117584743	807.7750226489795	182.5515777549504	-555.0372654532447	808.0621868629796	330.4921014576795	-445.7209547128186	1073.120948319157	795.2603325046883	-171.1809050795213	1205.126739255016	666.4836433934709	-254.329349431244	1117.8012567833	567.807460071051	-210.9376906400852	1126.596645294098	432.5125762556864	-245.6750025285116	nan	nan	nan	1164.766003820504	351.8217991388611	-299.4568470674224	1071.764160873985	271.3965275763396	-255.7263075141822	1077.115896982399	166.0569337409154	-321.5671777527963	987.7374354824024	108.5099888344228	-304.2497148762485	nan	nan	nan	1105.651600821995	61.83690664496277	-281.48823516925	1063.077360434377	48.18971893465964	-252.7991701204191	924.6392113005463	87.68618119214831	-362.8035967352574	
2192	148.76	1098.532433779125	1329.821071237932	-339.4885569912389	1012.619093775396	1103.496892792132	-366.1779255812006	1232.941581848773	1221.428975393999	-326.2408762096169	1156.388373853085	1270.753428328692	-190.7349482766183	1183.078134096488	1296.180604319599	-472.1072684820643	1171.472826710945	847.2063301549047	-466.5064244741922	1158.384574238801	874.7929630520949	-233.6448156844957	987.0572363169249	912.5903773605316	-392.6472082623064	982.4254726340713	915.8281160039395	-344.9270489195179	1127.951507957942	935.7093736163506	-501.3394140300119	1087.874682219501	952.5855354322225	-209.7594415115945	1093.775122385509	770.3118643877339	-530.8045805699689	1226.416527934168	644.5722978163094	-464.2440285462761	1154.16699980464	546.6625101493787	-519.294793648319	1172.631150563433	434.2985414043722	-507.0969344054121	nan	nan	nan	1151.781752255715	340.8576329843521	-466.2535777323569	1021.748896084148	378.4619275237039	-516.8460339224097	975.8945425935331	273.3957873024185	-476.3952681649277	859.4546791637066	283.2251562947204	-506.1901519309482	nan	nan	nan	862.62455420186	144.7254645769673	-524.2745884488867	820.8054724458426	175.875206355152	-554.628376140766	814.957446010564	324.3655926240845	-445.997556909613	1072.573654485445	795.913609399161	-171.1895269638265	1202.233098878272	665.3079479685375	-254.6787892176627	1113.199129160898	568.1590873936441	-211.1907400314301	1119.431928172837	432.4122098541129	-245.8145982919927	nan	nan	nan	1156.75857865521	351.2651801480048	-299.6692337496174	1063.141299160528	271.7184408812928	-255.851982983286	1067.559396398863	166.2424616077663	-321.3862459162067	977.7036146382653	109.1891882406452	-304.1321671947804	nan	nan	nan	1095.358894515116	61.56500087361053	-281.3219667992908	1052.65485171424	48.13257428038345	-252.6927561619138	914.5124375519978	88.84744783043406	-362.628756540233	
